<svg width="704" height="782" viewBox="0 0 704 782" fill="none" xmlns="http://www.w3.org/2000/svg">
<rect width="704" height="782" rx="105" fill="#90BEE1"/>
<path fill-rule="evenodd" clip-rule="evenodd" d="M351.25 118.569L346.77 121.623C345.071 122.782 342.836 122.782 341.137 121.623L338.682 119.95L338.694 120.01L329.173 113.466L310.515 100.745C310.235 100.554 309.983 100.345 309.759 100.123L306.669 98H179.503C165.696 98 154.503 109.193 154.503 123V281.064H533.403V123C533.403 109.193 522.211 98 508.403 98H381.218L378.191 100.08C377.956 100.319 377.69 100.542 377.391 100.745L356.247 115.162L351.244 118.6L351.25 118.569Z" fill="black"/>
<path d="M192.137 238.219H296.765V273.095H192.137V238.219Z" fill="#0072CE"/>
<path d="M395.041 236.363H499.669V271.238H395.041V236.363Z" fill="#0072CE"/>
<path d="M192.819 146.316C192.819 140.793 197.296 136.316 202.819 136.316H489.345C494.868 136.316 499.345 140.793 499.345 146.316V206.561H192.819V146.316Z" fill="#CAB898"/>
<rect x="80" y="270.421" width="544.936" height="106.433" rx="25" fill="black"/>
<rect x="99.158" y="306.608" width="491.719" height="34.0585" rx="9" fill="#CAB898"/>
<circle cx="345.017" cy="256.585" r="18.0936" fill="white"/>
<rect x="173.661" y="368.339" width="342.713" height="315.041" fill="black"/>
<path d="M209.576 375.543H482.044V648.011H209.576V375.543Z" fill="#9E6F50"/>
<path d="M244.451 408.239H277.147V443.115H244.451V408.239Z" fill="black"/>
<path d="M414.471 408.239H447.167V443.115H414.471V408.239Z" fill="black"/>
<path d="M329.461 480.99H362.157V548.562H329.461V480.99Z" fill="black"/>
<path d="M244.451 578.258H449.347V613.134H244.451V578.258Z" fill="black"/>
<mask id="mask0_5_177" style="mask-type:alpha" maskUnits="userSpaceOnUse" x="288" y="136" width="127" height="35">
<rect x="288.608" y="136.316" width="125.591" height="34.0585" fill="#D9D9D9"/>
</mask>
<g mask="url(#mask0_5_177)">
<path d="M339.967 167.612C342.365 169.274 345.542 169.274 347.94 167.612L417.718 119.269C423.358 115.361 420.593 106.515 413.731 106.515H274.175C267.314 106.515 264.549 115.361 270.189 119.269L339.967 167.612Z" fill="black"/>
</g>
</svg>
