<svg width="459" height="485" viewBox="0 0 459 485" fill="none" xmlns="http://www.w3.org/2000/svg">
<path fill-rule="evenodd" clip-rule="evenodd" d="M244.428 9.66284L243.817 10.0795C242.227 11.1631 240.169 11.2332 238.52 10.2899L238.529 10.3399L234.066 7.27203L232.392 6.13114C232.305 6.07163 232.221 6.01046 232.139 5.94774L223.485 0H177C163.193 0 152 11.1929 152 25V86H330V25C330 11.1929 318.807 0 305 0H258.506L249.929 5.8951C249.826 5.97634 249.719 6.05509 249.608 6.13114L246.792 8.05065L244.425 9.67756L244.428 9.66284Z" fill="black"/>
<path d="M122 289H360C387.614 289 410 311.386 410 339V483H122V289Z" fill="black"/>
<path d="M137.936 305.488H159.44L166.608 313.68L189.136 336.208L191.184 337.232L217.808 338.256V363.856L212.688 391.504L209.616 407.888L205.52 432.464L201.424 452.944H203.472L208.592 458.064L222.928 465.232V466.256H137.936V401.744L196.304 400.72L200.4 398.672V357.712L196.304 354.64L137.936 353.616V305.488Z" fill="#CAB898"/>
<path d="M169.68 65.872H218.832V82.256H169.68V65.872Z" fill="#0072CE"/>
<path d="M265 65H314.152V81.384H265V65Z" fill="#0072CE"/>
<rect x="85" y="289" width="52" height="66" fill="black"/>
<rect width="11" height="66" transform="matrix(-1 0 0 1 106 289)" fill="black"/>
<path d="M277.2 305.488H301.776L299.728 309.584L287.44 321.872H261.84L267.984 314.704L277.2 305.488Z" fill="#0072CE"/>
<path d="M277.2 305.488H301.776L300.752 307.536H279.248L264.912 321.872L261.84 320.848L277.2 305.488Z" fill="#0072CE"/>
<path d="M182.992 306.512H207.568L221.904 320.848V321.872H197.328L189.136 314.704L184.016 309.584L182.992 306.512Z" fill="#0072CE"/>
<path d="M362.192 370H393.936V466.256H362.192V370Z" fill="#9E6F50"/>
<path d="M263.888 463.184L266.96 464.208L345.808 465.232V466.256H260.816L263.888 463.184Z" fill="#CAB898"/>
<circle cx="43.5715" cy="170.572" r="24.3966" transform="rotate(-30 43.5715 170.572)" fill="white"/>
<circle cx="43.5715" cy="170.572" r="24.3966" transform="rotate(-30 43.5715 170.572)" fill="#9E6F50"/>
<circle cx="43.5715" cy="170.572" r="24.3966" transform="rotate(-30 43.5715 170.572)" stroke="black" stroke-width="15"/>
<path d="M170 28C170 22.4772 174.477 18 180 18H304C309.523 18 314 22.4772 314 28V51H170V28Z" fill="#CAB898"/>
<rect x="117" y="81" width="256" height="50" rx="25" fill="black"/>
<rect x="126" y="98" width="231" height="16" rx="8" fill="#CAB898"/>
<circle cx="241.5" cy="74.5" r="8.5" fill="white"/>
<rect x="53.2088" y="114.68" width="65.9585" height="22.3507" transform="rotate(-30 53.2088 114.68)" fill="#0072CE" stroke="black" stroke-width="5"/>
<circle cx="126.963" cy="104.736" r="28.2733" transform="rotate(-30 126.963 104.736)" fill="#90BEE1"/>
<circle cx="126.963" cy="104.736" r="28.2733" transform="rotate(-30 126.963 104.736)" fill="#0072CE"/>
<circle cx="126.963" cy="104.736" r="28.2733" transform="rotate(-30 126.963 104.736)" stroke="black" stroke-width="5"/>
<circle cx="68.1346" cy="138.701" r="28.2733" transform="rotate(-30 68.1346 138.701)" fill="#90BEE1"/>
<circle cx="68.1346" cy="138.701" r="28.2733" transform="rotate(-30 68.1346 138.701)" fill="#0072CE"/>
<circle cx="68.1346" cy="138.701" r="28.2733" transform="rotate(-30 68.1346 138.701)" stroke="black" stroke-width="5"/>
<circle cx="68.14" cy="138.702" r="18.8704" transform="rotate(-30 68.14 138.702)" fill="white"/>
<circle cx="68.14" cy="138.702" r="18.8704" transform="rotate(-30 68.14 138.702)" fill="#808080"/>
<circle cx="68.14" cy="138.702" r="18.8704" transform="rotate(-30 68.14 138.702)" stroke="black" stroke-width="5"/>
<circle cx="82.1427" cy="96.2833" r="9.1085" transform="rotate(-30 82.1427 96.2833)" fill="white"/>
<circle cx="82.1427" cy="96.2833" r="9.1085" transform="rotate(-30 82.1427 96.2833)" fill="#0072CE"/>
<circle cx="82.1427" cy="96.2833" r="9.1085" transform="rotate(-30 82.1427 96.2833)" stroke="black" stroke-width="5"/>
<path d="M143.449 95.0476C148.66 104.073 145.568 115.614 136.542 120.825C127.517 126.036 115.976 122.943 110.765 113.918C105.554 104.892 108.646 93.3514 117.672 88.1405C126.697 82.9296 138.238 86.022 143.449 95.0476Z" fill="white"/>
<path d="M143.449 95.0476C148.66 104.073 145.568 115.614 136.542 120.825C127.517 126.036 115.976 122.943 110.765 113.918C105.554 104.892 108.646 93.3514 117.672 88.1405C126.697 82.9296 138.238 86.022 143.449 95.0476Z" fill="#808080"/>
<path d="M143.449 95.0476C148.66 104.073 145.568 115.614 136.542 120.825C127.517 126.036 115.976 122.943 110.765 113.918C105.554 104.892 108.646 93.3514 117.672 88.1405C126.697 82.9296 138.238 86.022 143.449 95.0476Z" stroke="black" stroke-width="5"/>
<path d="M17 217.035L80.0277 206.85L107.985 352.165L94.3169 354.373C67.0564 358.779 40.7281 340.367 35.511 313.25L17 217.035Z" fill="black"/>
<path d="M37 230.114L67.529 225.18L88.6315 334.865L87.7183 335.012C71.3619 337.656 55.5649 326.609 52.4347 310.339L37 230.114Z" fill="#9E6F50"/>
<path d="M106 305H121.36V336.744H106V305Z" fill="#CAB898"/>
<rect x="138" y="305" width="208" height="162" fill="#CAB898"/>
<circle cx="307.49" cy="361.099" r="11" transform="rotate(-30 307.49 361.099)" fill="white"/>
<circle cx="307.49" cy="361.099" r="11" transform="rotate(-30 307.49 361.099)" fill="#0072CE"/>
<circle cx="307.49" cy="361.099" r="11" transform="rotate(-30 307.49 361.099)" stroke="black" stroke-width="8"/>
<path d="M137 346H201V401H137V346Z" fill="black"/>
<path d="M139 363H185V385H139V363Z" fill="#0072CE"/>
<mask id="mask0_3_280" style="mask-type:alpha" maskUnits="userSpaceOnUse" x="106" y="289" width="306" height="192">
<rect x="106" y="289" width="306" height="192" fill="#D9D9D9"/>
</mask>
<g mask="url(#mask0_3_280)">
<path d="M241.5 478.984L281.77 451.889H201.23L241.5 478.984Z" fill="black"/>
<path d="M241.5 255L281.77 452.25H201.23L241.5 255Z" fill="black"/>
</g>
<path d="M242 320L266.249 443.75H217.751L242 320Z" fill="#0072CE"/>
<path d="M242 462L266.249 443.25H217.751L242 462Z" fill="#0072CE"/>
<rect x="234" y="314" width="16" height="164" fill="black"/>
<path d="M234 338H250V354H234V338Z" fill="white"/>
<rect x="158" y="305" width="168" height="30" fill="black"/>
<mask id="mask1_3_280" style="mask-type:alpha" maskUnits="userSpaceOnUse" x="158" y="305" width="168" height="30">
<rect x="158" y="305" width="168" height="30" fill="black"/>
</mask>
<g mask="url(#mask1_3_280)">
<path d="M325.5 304L354.512 335.5H296.488L325.5 304Z" fill="#CAB898"/>
<path d="M158.5 304L187.512 335.5H129.488L158.5 304Z" fill="#CAB898"/>
</g>
<path d="M241.5 318L254.923 305.25H228.077L241.5 318Z" fill="#9E6F50"/>
<path d="M271.508 305.4L287.536 321.6H255.48L271.508 305.4Z" fill="#0072CE"/>
<path d="M287.492 321.6L303.52 305.4H271.464L287.492 321.6Z" fill="#0072CE"/>
<path d="M212.492 305.4L196.464 321.6H228.52L212.492 305.4Z" fill="#0072CE"/>
<path d="M196.508 321.6L180.48 305.4H212.536L196.508 321.6Z" fill="#0072CE"/>
<rect x="161" y="127" width="161" height="148" fill="black"/>
<path d="M177.872 130.384H305.872V258.384H177.872V130.384Z" fill="#9E6F50"/>
<path d="M194.256 145.744H209.616V162.128H194.256V145.744Z" fill="black"/>
<path d="M274.128 145.744H289.488V162.128H274.128V145.744Z" fill="black"/>
<path d="M234.192 178.512H249.552V210.256H234.192V178.512Z" fill="black"/>
<path d="M194.256 225.616H290.512V242H194.256V225.616Z" fill="black"/>
<rect x="318" y="401" width="11" height="25" fill="black"/>
<mask id="mask2_3_280" style="mask-type:alpha" maskUnits="userSpaceOnUse" x="215" y="18" width="59" height="16">
<rect x="215" y="18" width="59" height="16" fill="#D9D9D9"/>
</mask>
<g mask="url(#mask2_3_280)">
<path d="M237.014 31.2381C239.412 32.8995 242.588 32.8995 244.986 31.2381L265.892 16.754C271.532 12.8465 268.767 4 261.906 4H220.094C213.233 4 210.468 12.8465 216.107 16.754L237.014 31.2381Z" fill="black"/>
</g>
<path d="M362 305H364C380.569 305 394 318.431 394 335V355H362V305Z" fill="#CAB898"/>
</svg>
